# xmcd
#
# Track frame offsets:
#	182
#	15275
#	29722
#	51212
#	87245
#	106937
#	124847
#	137967
#	152622
#	170592
#	201482
#	218720
#
# Disc length: 3214 seconds
#
# Revision: 0
# Processed by: cddbd v1.5.1PL0 Copyright (c) Steve Scherf et al.
# Submitted via: audiograbber 1.83.01
#
DISCID=a60c8c0c
DTITLE=RAW HIDE - Gypsy Moon
DYEAR=1997
DGENRE=Blues
TTITLE0=Gipsy Moon
TTITLE1=No More Doggin'
TTITLE2=I'm Eager
TTITLE3=Four Roses
TTITLE4=Taylors Ark
TTITLE5=Stuff You Gotta Watch
TTITLE6=Don't Count My Days
TTITLE7=The Screwdriver
TTITLE8=My True Love
TTITLE9=Dreamed Up My Dreams
TTITLE10=Star Bounce
TTITLE11=Doin' My Thing
EXTD=
EXTT0=
EXTT1=
EXTT2=
EXTT3=
EXTT4=
EXTT5=
EXTT6=
EXTT7=
EXTT8=
EXTT9=
EXTT10=
EXTT11=
PLAYORDER=
